# xmcd
#
# Track frame offsets: 
#        150
#        10502
#        27229
#        41181
#        52058
#        65260
#        74900
#        89302
#        106592
#        121969
#        133859
#        149986
#        164576
#        177516
#        190118
#
# Disc length: 2663 seconds
#
# Revision: 0
# Processed by: cddbd v1.5.2PL0 Copyright (c) Steve Scherf et al.
# Submitted via: ExactAudioCopyFreeDBPlugin 1.0
#
DISCID=e20a650f
DTITLE=MIDNIGHTTRAIN - SKIFFLE-BAND
DYEAR=2003
DGENRE=Country
TTITLE0=Rag Mama
TTITLE1=You ant't goin' nowhere
TTITLE2=Sixteen tons
TTITLE3=Digging my potatoes
TTITLE4=San Francisco bay blues
TTITLE5=Fox on the run
TTITLE6=Whein I'm deadand gone
TTITLE7=Don't think twice
TTITLE8=Lonesome traveller
TTITLE9=The mobile line
TTITLE10=Last respects
TTITLE11=Have you ever seen the rain?
TTITLE12=This little light of mine
TTITLE13=The lion sleeps tonight
TTITLE14=Does your chewing gum lose it's flavour
EXTD=YEAR: 2003
EXTT0=
EXTT1=
EXTT2=
EXTT3=
EXTT4=
EXTT5=
EXTT6=
EXTT7=
EXTT8=
EXTT9=
EXTT10=
EXTT11=
EXTT12=
EXTT13=
EXTT14=
PLAYORDER=
